<svg width="18" height="18" viewBox="0 0 29 29" fill="none" xmlns="http://www.w3.org/2000/svg">
<path d="M21.9123 28.1208L16.6168 22.8253C15.2049 21.4135 12.9158 21.4135 11.504 22.8253L6.20847 28.1208L3.65204 25.5644L8.94753 20.2689L9.01403 20.2033C11.8204 17.4671 16.3003 17.467 19.1068 20.2033L19.1733 20.2689L24.4687 25.5644L21.9123 28.1208ZM7.91758 9.01403C10.6538 11.8204 10.6538 16.3003 7.91758 19.1067L7.85192 19.1733L2.55643 24.4687L0 21.9123L5.29548 16.6168C6.70736 15.2049 6.70736 12.9158 5.29548 11.504L0 6.20847L2.55643 3.65204L7.85192 8.94753L7.91758 9.01403ZM22.8253 11.504C21.4134 12.9159 21.4134 15.205 22.8253 16.6169L28.1208 21.9124L25.5643 24.4688L20.2689 19.1733L20.2032 19.1068C17.467 16.3004 17.467 11.8205 20.2032 9.01408L20.2689 8.94758L25.5643 3.65209L28.1208 6.20853L22.8253 11.504ZM19.1733 7.85192L19.1068 7.91758C16.3003 10.6538 11.8204 10.6538 9.01403 7.91758L8.94753 7.85192L3.65204 2.55643L6.20847 0L11.504 5.29548C12.9158 6.70736 15.2049 6.70736 16.6168 5.29548L21.9123 0L24.4687 2.55643L19.1733 7.85192Z" fill="white"/>
</svg>
