<svg width="85" height="29" viewBox="0 0 85 29" fill="none" xmlns="http://www.w3.org/2000/svg">
<path d="M21.9123 28.1208L16.6168 22.8253C15.2049 21.4135 12.9158 21.4135 11.504 22.8253L6.20847 28.1208L3.65204 25.5644L8.94753 20.2689L9.01403 20.2033C11.8204 17.4671 16.3003 17.467 19.1068 20.2033L19.1733 20.2689L24.4687 25.5644L21.9123 28.1208ZM7.91758 9.01403C10.6538 11.8204 10.6538 16.3003 7.91758 19.1067L7.85192 19.1733L2.55643 24.4687L0 21.9123L5.29548 16.6168C6.70736 15.2049 6.70736 12.9158 5.29548 11.504L0 6.20847L2.55643 3.65204L7.85192 8.94753L7.91758 9.01403ZM22.8253 11.504C21.4134 12.9159 21.4134 15.205 22.8253 16.6169L28.1208 21.9124L25.5643 24.4688L20.2689 19.1733L20.2032 19.1068C17.467 16.3004 17.467 11.8205 20.2032 9.01408L20.2689 8.94758L25.5643 3.65209L28.1208 6.20853L22.8253 11.504ZM19.1733 7.85192L19.1068 7.91758C16.3003 10.6538 11.8204 10.6538 9.01403 7.91758L8.94753 7.85192L3.65204 2.55643L6.20847 0L11.504 5.29548C12.9158 6.70736 15.2049 6.70736 16.6168 5.29548L21.9123 0L24.4687 2.55643L19.1733 7.85192Z" fill="white"/>
<path d="M84.2848 9.05433L79.0578 16.5462L84.7613 24.2797H80.7011L76.3786 18.3208L72.1873 24.2797H68.3413L73.879 16.5945L68.5208 9.05433H72.5809L76.5582 14.8407L80.4388 9.05433L84.2848 9.05433Z" fill="white"/>
<path d="M67.8363 3.84108V7.37641H64.2595V3.84108H67.8363ZM67.7811 9.05432V24.2797H64.3148V9.05432H67.7811Z" fill="white"/>
<path d="M57.2262 17.0295V24.2797H53.7599V9.05433H57.2262V14.1295C57.8545 10.9808 59.6222 9.05433 62.7225 9.05433H63.5235V12.3342H62.3773C58.4553 12.3342 57.2262 13.8395 57.2262 17.0295Z" fill="white"/>
<path d="M35.9657 4.53149H45.7085C49.5684 4.53149 52.2406 6.57536 52.2406 9.59282C52.2406 12.0026 50.542 13.791 48.2081 14.0741C51.053 14.3365 53.0761 16.2906 53.0761 18.9628C53.0761 22.1529 50.2037 24.2797 46.0745 24.2797H35.9657V4.53149ZM45.4185 12.9003C47.345 12.9003 48.6362 11.83 48.6362 10.1659C48.6362 8.55708 47.421 7.62491 45.3978 7.62491H39.5977V12.9003H45.4185ZM39.5977 21.1862H45.7154C48.2081 21.1862 49.4579 20.3024 49.4579 18.4726C49.4579 16.6428 48.215 15.7728 45.7224 15.7728H39.5977V21.1862Z" fill="white"/>
</svg>
