<svg width="45" height="22" viewBox="0 0 45 22" fill="none" xmlns="http://www.w3.org/2000/svg">
<g clip-path="url(#clip0_8119_109)">
<path d="M12.3953 21.0344H11.3174V21.9959H12.3953V21.0344Z" fill="white"/>
<path d="M23.4431 20.5535H22.3653V21.515H23.4431V20.5535Z" fill="white"/>
<path d="M23.4431 19.5919H22.3653V20.5535H23.4431V19.5919Z" fill="white"/>
<path d="M22.3654 18.6303H21.2875V19.5919H22.3654V18.6303Z" fill="white"/>
<path d="M21.2875 17.6688H20.2097V18.6304H21.2875V17.6688Z" fill="white"/>
<path d="M20.2095 16.7072H19.1317V17.6688H20.2095V16.7072Z" fill="white"/>
<path d="M21.2875 16.7072H20.2097V17.6688H21.2875V16.7072Z" fill="white"/>
<path d="M21.2875 15.7457H20.2097V16.7073H21.2875V15.7457Z" fill="white"/>
<path d="M20.2095 15.7457H19.1317V16.7073H20.2095V15.7457Z" fill="white"/>
<path d="M19.1318 15.7457H18.054V16.7073H19.1318V15.7457Z" fill="white"/>
<path d="M19.1318 14.7841H18.054V15.7457H19.1318V14.7841Z" fill="white"/>
<path d="M20.2095 14.7841H19.1317V15.7457H20.2095V14.7841Z" fill="white"/>
<path d="M20.2095 13.8225H19.1317V14.784H20.2095V13.8225Z" fill="white"/>
<path d="M19.1318 13.8225H18.054V14.784H19.1318V13.8225Z" fill="white"/>
<path d="M18.0539 13.8225H16.5719V14.784H18.0539V13.8225Z" fill="white"/>
<path d="M18.0539 12.861H16.5719V13.8225H18.0539V12.861Z" fill="white"/>
<path d="M19.1318 12.7408H18.054V13.8226H19.1318V12.7408Z" fill="white"/>
<path d="M20.8833 0H19.8055V0.961569H20.8833V0Z" fill="white"/>
<path d="M30.7185 1.68277H29.6407V2.64434H30.7185V1.68277Z" fill="white"/>
<path d="M3.23349 19.5919H2.15564V20.5535H3.23349V19.5919Z" fill="white"/>
<path d="M4.31143 18.6303H3.23358V19.5919H4.31143V18.6303Z" fill="white"/>
<path d="M5.38919 18.6303H4.31134V19.5919H5.38919V18.6303Z" fill="white"/>
<path d="M6.46713 17.6688H5.38928V18.6304H6.46713V17.6688Z" fill="white"/>
<path d="M7.54483 16.7072H6.46698V17.6688H7.54483V16.7072Z" fill="white"/>
<path d="M8.62277 15.7457H7.54492V16.7073H8.62277V15.7457Z" fill="white"/>
<path d="M9.70065 15.7457H8.6228V16.7073H9.70065V15.7457Z" fill="white"/>
<path d="M9.70065 14.7841H8.6228V15.7457H9.70065V14.7841Z" fill="white"/>
<path d="M10.7785 14.7841H9.70062V15.7457H10.7785V14.7841Z" fill="white"/>
<path d="M11.8564 14.7841H10.7785V15.7457H11.8564V14.7841Z" fill="white"/>
<path d="M11.8564 13.8225H10.7785V14.784H11.8564V13.8225Z" fill="white"/>
<path d="M11.8564 12.7408H10.7785V13.8226H11.8564V12.7408Z" fill="white"/>
<path d="M18.1886 11.7792H11.8563V13.8225H18.1886V11.7792Z" fill="white"/>
<path d="M13.3383 13.8225H11.8563V14.784H13.3383V13.8225Z" fill="white"/>
<path d="M29.6408 2.64432H28.563V3.60589H29.6408V2.64432Z" fill="white"/>
<path d="M28.5628 3.6059H27.485V4.56747H28.5628V3.6059Z" fill="white"/>
<path d="M27.4851 4.56744H26.4073V5.52901H27.4851V4.56744Z" fill="white"/>
<path d="M26.4071 4.56744H25.3293V5.52901H26.4071V4.56744Z" fill="white"/>
<path d="M25.3295 5.52902H24.2516V6.49059H25.3295V5.52902Z" fill="white"/>
<path d="M24.2515 5.52902H23.1736V6.49059H24.2515V5.52902Z" fill="white"/>
<path d="M24.2515 6.49057H23.1736V7.45214H24.2515V6.49057Z" fill="white"/>
<path d="M23.1738 6.49057H22.0959V7.45214H23.1738V6.49057Z" fill="white"/>
<path d="M22.0959 6.49057H21.0181V7.45214H22.0959V6.49057Z" fill="white"/>
<path d="M22.0959 7.45215H21.0181V8.41372H22.0959V7.45215Z" fill="white"/>
<path d="M22.0959 8.4137H21.0181V9.37527H22.0959V8.4137Z" fill="white"/>
<path d="M21.0179 8.4137H19.9401V9.37527H21.0179V8.4137Z" fill="white"/>
<path d="M19.9402 9.37531H18.8624V10.3369H19.9402V9.37531Z" fill="white"/>
<path d="M19.9402 8.4137H18.7276V9.37527H19.9402V8.4137Z" fill="white"/>
<path d="M21.0179 7.45215H19.9401V8.41372H21.0179V7.45215Z" fill="white"/>
<path d="M19.9402 7.45215H18.7276V8.41372H19.9402V7.45215Z" fill="white"/>
<path d="M23.1738 7.45215H22.0959V8.41372H23.1738V7.45215Z" fill="white"/>
<path d="M20.8833 0.961548H19.8055V1.92312H20.8833V0.961548Z" fill="white"/>
<path d="M19.8055 1.92313H18.7276V2.8847H19.8055V1.92313Z" fill="white"/>
<path d="M19.8055 2.88467H18.7276V3.84624H19.8055V2.88467Z" fill="white"/>
<path d="M19.8055 3.84628H18.7276V4.80785H19.8055V3.84628Z" fill="white"/>
<path d="M18.7274 3.84628H17.6496V4.80785H18.7274V3.84628Z" fill="white"/>
<path d="M18.7274 4.80783H17.6496V5.7694H18.7274V4.80783Z" fill="white"/>
<path d="M18.7274 5.76938H17.6496V6.73095H18.7274V5.76938Z" fill="white"/>
<path d="M17.6497 5.76938H16.5719V6.73095H17.6497V5.76938Z" fill="white"/>
<path d="M17.6497 6.73096H16.5719V7.69253H17.6497V6.73096Z" fill="white"/>
<path d="M18.7274 6.73096H17.6496V7.69253H18.7274V6.73096Z" fill="white"/>
<path d="M18.7274 7.69247H17.6496V8.65404H18.7274V7.69247Z" fill="white"/>
<path d="M17.6497 7.69247H16.5719V8.65404H17.6497V7.69247Z" fill="white"/>
<path d="M16.5719 7.69247H15.494V8.65404H16.5719V7.69247Z" fill="white"/>
<path d="M16.5719 8.65408H15.494V9.61565H16.5719V8.65408Z" fill="white"/>
<path d="M17.6497 8.65408H16.5719V9.61565H17.6497V8.65408Z" fill="white"/>
<path d="M18.7274 8.65408H17.6496V9.61565H18.7274V8.65408Z" fill="white"/>
<path d="M19.8055 4.80783H18.7276V5.7694H19.8055V4.80783Z" fill="white"/>
<path d="M13.3384 20.0728H12.2606V21.0343H13.3384V20.0728Z" fill="white"/>
<path d="M13.3384 18.1495H12.2606V19.1111H13.3384V18.1495Z" fill="white"/>
<path d="M14.4162 18.1495H13.3383V19.1111H14.4162V18.1495Z" fill="white"/>
<path d="M14.4162 17.1879H13.3383V18.1495H14.4162V17.1879Z" fill="white"/>
<path d="M14.4162 16.2265H13.3383V17.1881H14.4162V16.2265Z" fill="white"/>
<path d="M15.4941 16.2265H14.4163V17.1881H15.4941V16.2265Z" fill="white"/>
<path d="M15.4941 15.2648H14.4163V16.2264H15.4941V15.2648Z" fill="white"/>
<path d="M14.4162 15.2648H13.3383V16.2264H14.4162V15.2648Z" fill="white"/>
<path d="M14.4162 14.3033H13.3383V15.2649H14.4162V14.3033Z" fill="white"/>
<path d="M15.4941 14.3033H14.4163V15.2649H15.4941V14.3033Z" fill="white"/>
<path d="M16.5719 14.3033H15.494V15.2649H16.5719V14.3033Z" fill="white"/>
<path d="M16.5719 13.3417H15.494V14.3032H16.5719V13.3417Z" fill="white"/>
<path d="M1.07785 10.8177H0V11.7793H1.07785V10.8177Z" fill="white"/>
<path d="M2.15579 10.8177H1.07794V11.7793H2.15579V10.8177Z" fill="white"/>
<path d="M3.23349 10.8177H2.15564V11.7793H3.23349V10.8177Z" fill="white"/>
<path d="M4.31143 10.8177H3.23358V11.7793H4.31143V10.8177Z" fill="white"/>
<path d="M5.38919 10.8177H4.31134V11.7793H5.38919V10.8177Z" fill="white"/>
<path d="M6.46713 10.8177H5.38928V11.7793H6.46713V10.8177Z" fill="white"/>
<path d="M7.54483 10.8177H6.46698V11.7793H7.54483V10.8177Z" fill="white"/>
<path d="M8.62277 10.8177H7.54492V11.7793H8.62277V10.8177Z" fill="white"/>
<path d="M9.70065 11.7792H8.6228V12.7408H9.70065V11.7792Z" fill="white"/>
<path d="M10.7785 11.7792H9.70062V12.7408H10.7785V11.7792Z" fill="white"/>
<path d="M11.8564 11.7792H10.7785V12.7408H11.8564V11.7792Z" fill="white"/>
<path d="M12.7993 11.7792H11.7215V12.7408H12.7993V11.7792Z" fill="white"/>
<path d="M12.7993 10.8177H11.7215V11.7793H12.7993V10.8177Z" fill="white"/>
<path d="M12.7993 9.85608H11.7215V10.8176H12.7993V9.85608Z" fill="white"/>
<path d="M13.8772 9.85608H12.7994V10.8176H13.8772V9.85608Z" fill="white"/>
<path d="M9.70065 1.44235H8.6228V2.40392H9.70065V1.44235Z" fill="white"/>
<path d="M10.7785 2.4039H9.70062V3.36547H10.7785V2.4039Z" fill="white"/>
<path d="M11.8564 3.36548H10.7785V4.32705H11.8564V3.36548Z" fill="white"/>
<path d="M11.8564 4.32709H10.7785V5.28866H11.8564V4.32709Z" fill="white"/>
<path d="M11.8564 5.28864H10.7785V6.2502H11.8564V5.28864Z" fill="white"/>
<path d="M12.9341 5.28864H11.8563V6.2502H12.9341V5.28864Z" fill="white"/>
<path d="M12.9341 6.25021H11.8563V7.21178H12.9341V6.25021Z" fill="white"/>
<path d="M12.9341 7.21176H11.8563V8.17333H12.9341V7.21176Z" fill="white"/>
<path d="M14.0121 7.21176H12.9342V8.17333H14.0121V7.21176Z" fill="white"/>
<path d="M14.0121 8.17337H12.9342V9.13494H14.0121V8.17337Z" fill="white"/>
<path d="M14.0121 9.13489H12.9342V10.0965H14.0121V9.13489Z" fill="white"/>
<path d="M19.2665 9.13489H13.473V12.26H19.2665V9.13489Z" fill="white"/>
<path d="M15.0898 8.17337H14.012V9.13494H15.0898V8.17337Z" fill="white"/>
<path d="M16.1677 8.17337H15.0898V9.13494H16.1677V8.17337Z" fill="white"/>
<path d="M15.0898 7.21176H14.012V8.17333H15.0898V7.21176Z" fill="white"/>
<path d="M14.0121 6.25021H12.9342V7.21178H14.0121V6.25021Z" fill="white"/>
<path d="M45 10.8177H43.9221V11.7793H45V10.8177Z" fill="white"/>
<path d="M43.9223 10.8177H42.8444V11.7793H43.9223V10.8177Z" fill="white"/>
<path d="M42.8444 10.8177H41.7665V11.7793H42.8444V10.8177Z" fill="white"/>
<path d="M41.7666 10.8177H40.6887V11.7793H41.7666V10.8177Z" fill="white"/>
<path d="M40.6887 10.8177H39.6108V11.7793H40.6887V10.8177Z" fill="white"/>
<path d="M39.6109 10.8177H38.5331V11.7793H39.6109V10.8177Z" fill="white"/>
<path d="M38.5331 10.8177H37.4552V11.7793H38.5331V10.8177Z" fill="white"/>
<path d="M37.4552 10.8177H36.3774V11.7793H37.4552V10.8177Z" fill="white"/>
<path d="M36.3773 10.8177H35.2995V11.7793H36.3773V10.8177Z" fill="white"/>
<path d="M35.2993 10.8177H34.2215V11.7793H35.2993V10.8177Z" fill="white"/>
<path d="M34.2216 10.8177H33.1438V11.7793H34.2216V10.8177Z" fill="white"/>
<path d="M33.1438 10.8177H32.0659V11.7793H33.1438V10.8177Z" fill="white"/>
<path d="M32.066 10.8177H30.9882V11.7793H32.066V10.8177Z" fill="white"/>
<path d="M30.9881 10.8177H29.9103V11.7793H30.9881V10.8177Z" fill="white"/>
<path d="M29.9103 10.8177H28.8325V11.7793H29.9103V10.8177Z" fill="white"/>
<path d="M28.8324 10.8177H27.7546V11.7793H28.8324V10.8177Z" fill="white"/>
<path d="M27.7544 10.8177H26.6766V11.7793H27.7544V10.8177Z" fill="white"/>
<path d="M26.6767 10.8177H25.5989V11.7793H26.6767V10.8177Z" fill="white"/>
<path d="M26.6767 11.7792H25.5989V12.7408H26.6767V11.7792Z" fill="white"/>
<path d="M25.5988 11.7792H24.521V12.7408H25.5988V11.7792Z" fill="white"/>
<path d="M25.5988 10.8177H24.521V11.7793H25.5988V10.8177Z" fill="white"/>
<path d="M24.5211 10.8177H23.4432V11.7793H24.5211V10.8177Z" fill="white"/>
<path d="M24.5211 11.7792H23.4432V12.7408H24.5211V11.7792Z" fill="white"/>
<path d="M23.4431 11.7792H22.3653V12.7408H23.4431V11.7792Z" fill="white"/>
<path d="M23.4431 10.8177H22.3653V11.7793H23.4431V10.8177Z" fill="white"/>
<path d="M22.3654 10.8177H21.2875V11.7793H22.3654V10.8177Z" fill="white"/>
<path d="M21.2875 9.85608H20.2097V10.8176H21.2875V9.85608Z" fill="white"/>
<path d="M20.2095 9.85608H19.1317V10.8176H20.2095V9.85608Z" fill="white"/>
<path d="M21.2875 10.8177H20.2097V11.7793H21.2875V10.8177Z" fill="white"/>
<path d="M20.2095 10.8177H19.1317V11.7793H20.2095V10.8177Z" fill="white"/>
<path d="M21.2875 11.7792H20.2097V12.7408H21.2875V11.7792Z" fill="white"/>
<path d="M20.2095 11.7792H19.1317V12.7408H20.2095V11.7792Z" fill="white"/>
<path d="M19.1318 11.7792H18.054V12.7408H19.1318V11.7792Z" fill="white"/>
<path d="M22.3654 11.7792H21.2875V12.7408H22.3654V11.7792Z" fill="white"/>
<path d="M13.8772 10.8177H12.7994V11.7793H13.8772V10.8177Z" fill="white"/>
<path d="M13.8772 11.7792H12.7994V12.7408H13.8772V11.7792Z" fill="white"/>
<path d="M9.70065 10.8177H8.6228V11.7793H9.70065V10.8177Z" fill="white"/>
<path d="M10.7785 10.8177H9.70062V11.7793H10.7785V10.8177Z" fill="white"/>
<path d="M11.8564 10.8177H10.7785V11.7793H11.8564V10.8177Z" fill="white"/>
<path d="M15.4941 13.3417H14.4163V14.3032H15.4941V13.3417Z" fill="white"/>
<path d="M14.4162 13.3417H13.3383V14.3032H14.4162V13.3417Z" fill="white"/>
<path d="M13.3384 16.2265H12.2606V17.1881H13.3384V16.2265Z" fill="white"/>
<path d="M13.3384 17.1879H12.2606V18.1495H13.3384V17.1879Z" fill="white"/>
<path d="M13.3384 19.1111H12.2606V20.0727H13.3384V19.1111Z" fill="white"/>
</g>
<defs>
<clipPath id="clip0_8119_109">
<rect width="45" height="22" fill="white"/>
</clipPath>
</defs>
</svg>
